<svg width="22" height="22" viewBox="0 0 22 22" fill="none" xmlns="http://www.w3.org/2000/svg">
<path d="M21.7316 0.268392C21.5597 0.0965409 21.3266 0 21.0835 0C20.8404 0 20.6073 0.0965409 20.4354 0.268392L11 9.70381L1.56458 0.268392C1.39268 0.0965409 1.15956 0 0.916487 0C0.673416 0 0.440296 0.0965409 0.268392 0.268392C0.0965409 0.440296 0 0.673416 0 0.916487C0 1.15956 0.0965409 1.39268 0.268392 1.56458L9.70381 11L0.268392 20.4354C0.0965409 20.6073 0 20.8404 0 21.0835C0 21.3266 0.0965409 21.5597 0.268392 21.7316C0.440296 21.9035 0.673416 22 0.916487 22C1.15956 22 1.39268 21.9035 1.56458 21.7316L11 12.2962L20.4354 21.7316C20.6073 21.9035 20.8404 22 21.0835 22C21.3266 22 21.5597 21.9035 21.7316 21.7316C21.9035 21.5597 22 21.3266 22 21.0835C22 20.8404 21.9035 20.6073 21.7316 20.4354L12.2962 11L21.7316 1.56458C21.9035 1.39268 22 1.15956 22 0.916487C22 0.673416 21.9035 0.440296 21.7316 0.268392Z" fill="#141414"/>
</svg>
